<svg version="1" xmlns="http://www.w3.org/2000/svg" width="240" height="240" viewBox="0 0 180.000000 180.000000"><path d="M0 90v90h140.3l-.6-14.7c-.7-14.2-.8-14.9-3.2-17.1-2.8-2.4-8.4-2.9-12.9-1.2-2.3.8-2.6.7-2.6-1 0-1.8.7-2 7.1-2 3.9 0 7.9.5 9 1 3.7 2 5.1 6.9 6.2 21.2l1.1 13.8H180V0H0v90zm123.2-65.9c7.1 7.4 11.7 19.2 9.9 25.4-.9 3.2-.7 3.7 1.5 5.2 2.3 1.5 2.3 1.7.9 3.3-1.1 1.2-1.3 2-.6 2.5 1.6.9 1.3 6.2-.3 6.8-.8.3-3.3-.4-5.7-1.6-3.4-1.7-6.8-2.3-14.9-2.6l-10.5-.4 7-1.3c5.3-1 8.3-1 12.2-.2 4.1.9 5.6.8 6.8-.2 1-.8 1.5-.9 1.5-.1 0 .6.5 1.1 1 1.1 1.9 0-1-4-3.5-5-1.3-.5-2.6-1.4-3-1.9-.3-.6-1.1-1.1-1.7-1.1-.6 0-.3.9.8 2.1l1.9 2.1-3.6-2.1-3.7-2.2-12.3 3.2C95.6 60 92 61.8 92 64.3c0 .4.8.6 1.8.3.9-.3 3.5-.7 5.7-1 3.4-.5 3.6-.4 1.2.3-1.6.5-3.4 1.4-4.1 2-.7.6-4 1-7.4 1-3.3-.1-6.5.2-7 .5s-1.5-.1-2.2-.9c-1-1.2-.9-1.5.3-1.5 1 0 1.4-.6 1.1-1.4-.6-1.6-20.2-10.5-25-11.3-1.8-.3-3.4-1-3.4-1.6 0-.7-.4-.7-1.2.1-.7.7-2.2 1.2-3.4 1.2-1.2 0-2.9 1.1-3.8 2.5-2.2 3.3-.4 3.2 4-.1 1.9-1.5 3.7-2.4 4-2.2.3.3-1.1 1.6-3 2.8-2 1.2-3.6 2.5-3.6 3s3 .8 6.7.8c4.3 0 9 .7 12.8 2l6 2-8.1.1c-7.6.1-17.8 2.2-19.8 4.2-.6.5-1.6.9-2.3.9-1.4 0-.8-4.5.9-6.7.6-.8.2-1.5-1.2-2.3l-2.1-1.1 2.2-3.9c1.8-3.2 2-4.2.9-5.4-2.8-3.5 1.9-15.4 9.1-22.9 4.3-4.4 4.8-4.7 7.4-3.7 1.5.6 7.3 1.8 12.9 2.6 5.6.9 11 2.2 12.2 2.9 1.8 1.1 2.6 1.1 4.9-.1 1.5-.8 3.7-1.4 4.9-1.4 3.2 0 20.5-3.8 22.4-4.9 2.7-1.6 3.3-1.4 7.4 3zM55 65.7c0 .5 2.6.7 5.7.6 5.9-.2 5.7.1-.9 1.2-5.5.9-4.7 2.1 1.1 1.7 2.7-.2 5.8.1 6.8.7 1.6 1 1.5 1.1-.7.9-1.9-.2-2.5.2-2.5 1.7 0 1.6-.7 2-3.7 2-2 0-3.4.3-3.1.7.6 1.1 14.1 1 14.7-.1.4-.5-.2-.7-1.3-.4-1.5.4-1.8 0-1.4-2.1.4-2.1 1-2.5 2.5-2 1.8.5 1.9.4.7-1.8-.6-1.2-1.7-2.6-2.3-3-1.7-1.2.6-1 4.3.3 1.8.6 3.6 2.1 4 3.2 1.1 3-.8 9.6-3.3 11.2-3.2 2.1-16.2 2.9-23 1.5-6.9-1.4-9.6-3.8-9.6-8.4 0-3.9 1.9-6.3 5.8-7.2 1.5-.3 3.2-.7 3.7-.9 1.8-.6 2.5-.5 2.5.2zm59.4.4c3.8.1 3.6.2-1.7 1-8.2 1.2-11.1 3.2-3.4 2.3l5.9-.7-.4 2.9c-.3 2.7-.7 2.9-5.3 3.5-4.5.5-4.2.6 2.8.7 4.9.1 7.7-.2 7.7-.9 0-.6-.8-.8-1.8-.5-1.6.5-1.8.2-1.4-2.4.5-3.4.9-3.6 3.3-1.4 1.6 1.5 1.7 1.3 1.5-2.1-.3-2.8 0-3.5 1.1-3.1.8.4 2.7.9 4.1 1.2 1.5.4 3.3 1.1 4 1.7 1.5 1.1 1.6 7.1.2 9.7-1.7 3.2-11.1 5.4-20.1 4.7-9.4-.8-12.5-2.1-13.9-6-.9-2.6-1.4-8.7-.7-8.7.1 0 2-.7 4.2-1.5s5.3-1.3 6.9-1c1.6.3 4.7.6 7 .6zm-84 3.9c2.8 2.5 3.7 4.4 5 9.8 3.4 15.3 3.1 19.6-.9 13.5-1.6-2.4-1.7-3-.3-5.3 1.3-2.2 1.3-3.1 0-7-2.8-8.4-7.4-12.7-10.7-10-1.7 1.4-2 8.6-.4 9.6.7.4 1-.4.9-2.2-.4-5 0-6.4 1.4-6.4.7 0 1.9.7 2.6 1.5 1.1 1.3 1 1.8-.6 3.1-1.8 1.5-1.8 1.5.8 1 3.6-.8 4.8 2.4 1.9 5.3-1.2 1.2-2.1 3.5-2.2 5.3 0 1.8-.3 2.7-.6 2-.6-1.4-2.3-1.6-2.3-.2 0 .5 1.4 2.5 3.2 4.5 2.7 3.1 3.6 3.6 6.7 3.3 3.3-.3 3.6-.1 3.9 2.4.3 2.2-.1 2.8-1.5 2.8-4.7 0-13.2-9.5-15.3-16.9-1.5-5.5-1.2-14.3.6-16.9 2-3 3.7-2.8 7.8.8zm124.2-.5c2.3 3.5 1.5 15.5-1.4 21.2-4.1 8-12.6 14.3-15.5 11.4-2.1-2.1.5-4.6 4.5-4.3 3.1.3 4-.2 7.2-4 2.2-2.5 3.2-4.4 2.5-4.7-.6-.2-1.5.3-2 1-.6 1-.9.4-.9-1.9 0-1.9-.8-4-2.1-5.3-2.8-2.8-1.7-6.3 1.7-5.5 1.4.4 2.4.2 2.4-.4 0-.5-.7-1-1.6-1-1.9 0-1.4-2 .9-3.4s3.1-.2 2.9 4.5c-.1 2.4.2 3.8.8 3.4 1.5-.9 1.2-8.1-.5-9.5-3.2-2.7-7.8 1.5-10.8 10-1.8 5.3-2.2 2.9-.6-3.6 1.2-4.8 6.1-10.4 9.1-10.4.9 0 2.5 1.1 3.4 2.5zM94.5 73c2.5 9.6 4.8 11 18.4 11 14 0 18.9-2.1 20-8.5.6-3.7 3.1-6.2 3.1-3.1 0 1 .8 1.6 2.1 1.6 1.4 0 1.9.5 1.6 1.7-.3 1-1.7 7.4-3.2 14.3-3.4 15.8-5.2 21.8-7.6 25.1-3.6 5.1-26.4 19.2-27.8 17.2-.3-.5-1.4-1.2-2.4-1.6-1.5-.5-1.6-.2-1.1 2.1.6 2.6.6 2.7-1.1.7-1.3-1.6-1.6-1.7-1.1-.3.7 2.2-3.2 3.6-4.6 1.7-.7-1.1-1.1-1.1-1.5-.2-.8 2.2-2.3 1.4-2.3-1.2 0-1.4-.5-2.5-1-2.5-.6 0-.8 1.1-.4 2.5.4 1.5.2 2.5-.5 2.5-.6 0-1.2-1.5-1.2-3.3-.2-3.1-.2-3.1-.6-.4-.3 2.1-.9 2.7-2 2.3-.8-.3-2.1-.6-2.9-.6-1.1 0-1.3-.6-.9-2 .4-1.1.2-2-.4-2-.6 0-1.1.7-1.1 1.5s-.3 1.5-.6 1.5c-2.4 0-19.6-10.2-24-14.3-7.1-6.4-8.1-8.5-9.9-20.4-.8-5.4-2.1-13.2-3-17.2-1.9-9.1-2-8.6 1-8.7 2.1-.2 2.5.2 2.5 2.7 0 6.5 7.2 9.3 22.5 8.7 6.4-.2 10.8-.9 12.2-1.8 2.4-1.5 4.3-5.8 4.3-9.6 0-3.1 2.6-4.4 7.9-4.1 4.4.2 4.5.3 5.6 4.7zM147 87.5c0 4.4-1.3 8.5-2.6 8.5-1.2 0-1.1-.5.2-2.6 1.5-2.1 1.5-3.1.6-5.8-1.6-4.3-1.5-5.1.3-3.6.8.7 1.5 2.3 1.5 3.5zM32.5 85.7c-1.6 4-1.7 5.4-.1 7.8 1.4 2.1 1.4 2.5.2 2.5-1 0-1.7-1.5-2.2-4.5-.7-4.9-.1-7.5 1.7-7.5.7 0 .8.7.4 1.7zm110.9 2.5c1.1 1.9-.9 6.7-3.2 7.5-2 .8-2.1.1-1-5 1-4.8 2.2-5.5 4.2-2.5zm-66.1 50.1c-.3.5.3.7 1.3.3 1.1-.3 4.2-.2 7.1.3 5.4.8 15-1.4 20-4.6l2.3-1.5v5c0 9.4-5.3 12.7-21 12.7-13.9 0-19-3.5-19-13.2v-4.1l4.9 2.1c2.8 1.1 4.7 2.5 4.4 3zm-22.4 7.9c1.2 3.1.8 3.2-2.8 1.4-1.6-.9-4.7-1.6-6.8-1.6-2.8 0-3.4-.3-2.3-1 .8-.5 3.7-1 6.3-1 4 0 4.9.3 5.6 2.2z"/><path d="M46 85.5c0 .8.7 1.5 1.5 1.5s1.5-.7 1.5-1.5-.7-1.5-1.5-1.5-1.5.7-1.5 1.5zM74.1 95.8c-1.6 3 .4 4.9 5.4 5 4.9.1 6.1-1.4 1.9-2.4-1.6-.4-2.9-.2-3.3.5-1.1 1.7-3.3-1.2-2.5-3.3.8-2.2-.3-2-1.5.2zM99.1 96.1c-.1 1.5-.9 3.3-1.8 4-1 .8-1.4.9-1 .2 1-1.6-1-2.6-3.9-1.9-3.6.9-2.9 2.3 1.4 2.9 4.9.6 8.1-2 6.4-5.5l-1.1-2.3v2.6zM81.8 105.2c-1.6 1.6-2 1.7-1.5.5.3-.9.2-1.7-.2-1.7-.5 0-1.2.6-1.4 1.2-.4.9-.6.9-.6-.1-.1-1.1-.5-1-1.7.5-.8 1-1.3 1.3-.9.6.3-.6.1-1.2-.4-1.2-.6 0-1.1.6-1.1 1.2 0 .9-.4.8-1-.2s-1-1.1-1-.3c0 .7-.6 1.3-1.4 1.3-.7 0-1.9.7-2.6 1.5-1.1 1.3-.9 1.5.8 1.2 1.2-.2 2.4-.6 2.8-.9.3-.4 1.7-.4 3-.2s2.4 0 2.4-.5c0-1 3.2-.7 5.1.4.6.4 1.3-.3 1.6-1.6.6-2.1.7-2.1 1.3-.4.6 1.8.7 1.8 1.2-.2.8-3.1-1.8-3.7-4.4-1.1zM89.2 103.9c-.9.5-.8 1.2.4 2.7 1.4 1.8 1.5 1.8.9-.6-.5-2.5-.5-2.5.6-.3.7 1.3 1.6 2.3 2.1 2.3s.6-.6.2-1.3c-.5-.8-.2-.8.9.2.9.7 1.7.9 1.7.3 0-.5-.7-1.5-1.5-2.2-.8-.7-1.5-.9-1.5-.5s-.6.3-1.3-.3c-.7-.6-1.8-.7-2.5-.3zM96 104.8c0 1.3 1.5 2.8 3.3 3.5 1.8.7 2.2-.1.9-1.9-.9-1.3-4.2-2.6-4.2-1.6zM101 105.8c0 .5.7 1.5 1.5 2.2.8.7 1.5.9 1.5.4 0-.4.5-.3 1.2.4 2 2 3.2 1.3 1.3-.8-1-1.1-2-1.8-2.3-1.5-.3.3-1.1 0-1.9-.6-.8-.7-1.3-.8-1.3-.1zM72.5 112c-.3.5-.5 1-.3 1 5.3.7 30.4.2 30.6-.5.3-1.4-29.4-1.9-30.3-.5zM80 120c-1.6 1-1 1.3 3 1.1 1.4 0 1.9.2 1.2.5-2.3 1.1-.1 2.3 2.4 1.4 3.6-1.4 4.1-1.2 1.8.6-1.8 1.5-1.8 1.5.6 1 1.4-.3 3.1-.6 3.8-.6 1.8 0 1.5-3.7-.4-4.4-2.4-.9-10.7-.7-12.4.4zM87.1 128.2c0 .7.4 2.2.9 3.3.8 1.8.9 1.7.9-.7.1-1.5-.3-3-.9-3.3-.5-.3-1 0-.9.7zM80 130c-.6 1.2-.9 2.4-.7 2.7.3.2 1.1-.5 1.7-1.7.6-1.2.9-2.4.7-2.7-.3-.2-1.1.5-1.7 1.7zM90 130.8c0 .5.7 1.7 1.5 2.8 1.5 1.9 2 .8.9-2-.6-1.7-2.4-2.2-2.4-.8z"/></svg>